#!OML:ASF H:\GeneralSubjects\Female5\Project 1\Capture day 1\Session 1\Female5.ASF
:FULLY-SPECIFIED
:DEGREES
32
root -9.87024 16.0706 3.61937 -174.58 -84.2456 182.622
lowerback 4.44858 1.88967 -2.67814
upperback -10.6614 2.01136 1.01239
thorax -14.3346 1.17036 2.31838
lowerneck -17.1635 -1.33683 -0.79679
upperneck 30.9443 -2.2029 -0.659165
head 13.2602 -1.4284 -0.543927
rclavicle -3.32964e-015 -1.98785e-015
rhumerus -46.3393 19.8044 -82.0442
rradius 29.509
rwrist -12.9722
rhand -26.0558 -24.7026
rfingers 7.12502
rthumb 0.49185 -54.6818
lclavicle -3.32964e-015 -1.98785e-015
lhumerus -49.0957 8.83461 61.7287
lradius 28.0155
lwrist -9.76779
lhand -33.4142 37.5225
lfingers 7.12502
lthumb -6.61404 67.3993
rfemur -2.89086 28.2454 24.9324
rtibia -10.5701
rfoot -2.73565 -22.6972
rtoes -19.751
lfemur 13.7429 -38.5949 -39.0117
ltibia -3.21599
lfoot -50.1962 1.60476
ltoes -13.1451
33
root -9.87451 16.0771 3.61908 -173.985 -84.3112 182.159
lowerback 4.51008 1.86872 -2.71181
upperback -10.6637 1.97993 1.02628
thorax -14.3772 1.161 2.35665
lowerneck -17.4151 -1.35302 -1.08246
upperneck 31.0838 -2.21283 -0.416029
head 13.3813 -1.43176 -0.40605
rclavicle -1.50579e-014 -1.74931e-014
rhumerus -46.4567 19.8185 -82.0509
rradius 28.7615
rwrist -12.8489
rhand -26.0904 -24.3578
rfingers 7.12502
rthumb 0.458393 -54.3371
lclavicle -1.50579e-014 -1.74931e-014
lhumerus -49.4126 9.05662 61.3736
lradius 28.0844
lwrist -9.47046
lhand -33.0454 38.6926
lfingers 7.12502
lthumb -6.25805 68.5802
rfemur -2.96453 28.1883 24.8388
rtibia -10.6395
rfoot -3.08431 -22.724
rtoes -18.0582
lfemur 14.0538 -39.4554 -39.3668
ltibia -3.47968
lfoot -51.0001 -0.129984
ltoes -10.2722
34
root -9.8773 16.082 3.61886 -174.01 -84.4093 182.297
lowerback 4.60568 1.86067 -2.65187
upperback -10.6705 1.97514 1.0268
thorax -14.4429 1.15332 2.32247
lowerneck -17.6271 -1.33806 -0.965977
upperneck 31.1463 -2.1613 -0.596216
head 13.4493 -1.41774 -0.491577
rclavicle 2.07233e-014 1.98785e-015
rhumerus -46.6484 19.61 -82.0544
rradius 28.0047
rwrist -12.2969
rhand -25.7834 -24.4658
rfingers 7.12502
rthumb 0.754972 -54.4442
lclavicle 2.07233e-014 1.98785e-015
lhumerus -49.6536 9.37912 60.9564
lradius 27.8726
lwrist -9.73442
lhand -31.9018 40.6387
lfingers 7.12502
lthumb -5.15391 70.556
rfemur -3.00322 28.1042 24.82
rtibia -10.7593
rfoot -3.21412 -22.8206
rtoes -17.2804
lfemur 14.0785 -39.6821 -39.3725
ltibia -3.64033
lfoot -51.1013 0.0621446
ltoes -10.2297
35
root -9.87649 16.0825 3.61811 -175.045 -84.5658 183.435
lowerback 4.69602 1.85092 -2.4517
upperback -10.6727 1.98402 1.01411
thorax -14.4922 1.13542 2.1929
lowerneck -17.6817 -1.35595 -0.813707
upperneck 31.0676 -2.14524 -0.842056
head 13.4219 -1.42345 -0.610799
rclavicle 1.28216e-014 4.37326e-015
rhumerus -46.8711 19.1171 -82.026
rradius 27.2746
rwrist -11.4337
rhand -25.2069 -25.0071
rfingers 7.12502
rthumb 1.31173 -54.9828
lclavicle 1.28216e-014 4.37326e-015
lhumerus -49.8765 9.31917 60.8584
lradius 27.6958
lwrist -9.90604
lhand -31.3209 41.348
lfingers 7.12502
lthumb -4.59301 71.2783
rfemur -3.04261 27.9648 24.8908
rtibia -10.8816
rfoot -3.03213 -22.9048
rtoes -18.598
lfemur 13.9058 -39.4876 -39.0666
ltibia -3.74406
lfoot -50.7442 1.32423
ltoes -11.8215
36
root -9.87176 16.0805 3.61807 -176.714 -84.7573 185.277
lowerback 4.72142 1.80321 -2.19516
upperback -10.703 1.94881 1.02478
thorax -14.5296 1.09091 2.06701
lowerneck -17.6337 -1.36014 -0.827426
upperneck 31.013 -2.14571 -0.839254
head 13.3885 -1.42412 -0.605737
rclavicle 1.0635e-014 4.37326e-015
rhumerus -47.0854 18.7862 -82.1119
rradius 26.6129
rwrist -10.9661
rhand -24.9659 -24.9703
rfingers 7.12502
rthumb 1.54455 -54.9445
lclavicle 1.0635e-014 4.37326e-015
lhumerus -50.0474 8.97361 61.1241
lradius 27.4685
lwrist -9.90753
lhand -31.2492 40.9715
lfingers 7.12502
lthumb -4.5238 70.9032
rfemur -3.1635 27.8055 25.0094
rtibia -10.9814
rfoot -3.03679 -22.9273
rtoes -19.0111
lfemur 13.6397 -39.4554 -38.6645
ltibia -3.80517
lfoot -50.4867 1.46764
ltoes -12.0887
37
root -9.86565 16.0806 3.62022 -177.403 -84.9489 186.147
lowerback 4.73786 1.74799 -2.0445
upperback -10.7362 1.8895 1.02631
thorax -14.569 1.04595 1.99462
lowerneck -17.5898 -1.36799 -0.987834
upperneck 30.9741 -2.17724 -0.619669
head 13.368 -1.42596 -0.495791
rclavicle 3.29486e-014 2.22639e-014
rhumerus -47.3566 18.8017 -82.3916
rradius 26.1538
rwrist -11.0805
rhand -24.9443 -24.9685
rfingers 7.12502
rthumb 1.56538 -54.9425
lclavicle 3.29486e-014 2.22639e-014
lhumerus -49.9845 8.75412 61.5427
lradius 26.8135
lwrist -10.1741
lhand -31.3009 40.5266
lfingers 7.12502
lthumb -4.57372 70.4572
rfemur -3.29719 27.6434 25.0226
rtibia -11.0835
rfoot -3.1041 -22.8889
rtoes -18.8343
lfemur 13.3246 -39.5328 -38.3668
ltibia -3.82683
lfoot -50.2408 0.929998
ltoes -11.595
38
root -9.85978 16.0822 3.62307 -176.956 -85.1551 185.836
lowerback 4.80247 1.70355 -2.03334
upperback -10.7326 1.83167 1.03212
thorax -14.6023 1.01867 2.00359
lowerneck -17.7279 -1.37682 -1.08204
upperneck 30.9628 -2.17958 -0.532349
head 13.3956 -1.42283 -0.446678
rclavicle 2.27111e-014 2.00773e-014
rhumerus -47.6409 18.8273 -82.6077
rradius 25.9446
rwrist -11.2609
rhand -24.7587 -25.5523
rfingers 7.12502
rthumb 1.74463 -55.5249
lclavicle 2.27111e-014 2.00773e-014
lhumerus -49.8542 8.48177 62.2528
lradius 26.1401
lwrist -10.3853
lhand -31.561 40.6887
lfingers 7.12502
lthumb -4.82483 70.6138
rfemur -3.38877 27.4482 24.9144
rtibia -11.2029
rfoot -2.88047 -22.853
rtoes -20.6732
lfemur 13.1001 -39.7174 -38.263
ltibia -3.85055
lfoot -50.1335 0.75803
ltoes -11.5946
39
root -9.85136 16.0819 3.62473 -176.354 -85.3128 185.364
lowerback 4.89549 1.65326 -2.12558
upperback -10.709 1.76178 1.10068
thorax -14.6367 1.00248 2.14184
lowerneck -17.9805 -1.36278 -1.03945
upperneck 30.9731 -2.09216 -0.733511
head 13.451 -1.4032 -0.521208
rclavicle -8.10048e-015 -2.98177e-015
rhumerus -47.9002 18.773 -82.6762
rradius 25.857
rwrist -11.4033
rhand -24.6151 -25.6946
rfingers 7.12502
rthumb 1.8833 -55.666
lclavicle -8.10048e-015 -2.98177e-015
lhumerus -49.8122 8.30049 63.1974
lradius 25.776
lwrist -10.4554
lhand -31.6329 40.4608
lfingers 7.12502
lthumb -4.89423 70.3843
rfemur -3.5619 27.2997 24.7778
rtibia -11.232
rfoot -2.42775 -22.8589
rtoes -22.1479
lfemur 12.9439 -40.0498 -38.2497
ltibia -3.83247
lfoot -50.2525 1.04912
ltoes -11.7399
40
root -9.83955 16.081 3.62672 -176.187 -85.4019 185.314
lowerback 5.02225 1.6176 -2.17547
upperback -10.6933 1.71358 1.1486
thorax -14.7007 0.990521 2.22938
lowerneck -18.1571 -1.34764 -1.01421
upperneck 30.9457 -2.035 -0.827712
head 13.4758 -1.38454 -0.55427
rclavicle 1.3418e-015 5.56597e-015
rhumerus -48.1862 18.6591 -82.8248
rradius 25.8343
rwrist -11.5607
rhand -24.4603 -25.6769
rfingers 7.12502
rthumb 2.0328 -55.6469
lclavicle 1.3418e-015 5.56597e-015
lhumerus -49.6638 8.33651 64.0912
lradius 25.397
lwrist -10.4874
lhand -31.6549 39.7543
lfingers 7.12502
lthumb -4.91553 69.6772
rfemur -3.82147 27.2158 24.6496
rtibia -11.1666
rfoot -2.20757 -22.9097
rtoes -21.2057
lfemur 12.8022 -40.4677 -38.2263
ltibia -3.77173
lfoot -50.5323 0.701111
ltoes -10.9585
41
root -9.8294 16.0803 3.63055 -176.544 -85.4658 185.73
lowerback 5.1635 1.61044 -2.12061
upperback -10.6603 1.71301 1.14816
thorax -14.7485 0.985926 2.19564
lowerneck -18.2286 -1.34719 -0.989078
upperneck 30.8312 -2.03203 -0.82196
head 13.4422 -1.37494 -0.554179
rclavicle 1.69464e-014 2.98177e-015
rhumerus -48.4953 18.6512 -83.1856
rradius 25.8234
rwrist -11.8493
rhand -24.4027 -25.8471
rfingers 7.12502
rthumb 2.08841 -55.8166
lclavicle 1.69464e-014 2.98177e-015
lhumerus -49.4294 8.35203 64.7927
lradius 24.8167
lwrist -10.6742
lhand -31.6758 38.9931
lfingers 7.12502
lthumb -4.93569 68.9156
rfemur -3.97261 27.1489 24.5884
rtibia -11.1471
rfoot -2.40825 -22.9807
rtoes -19.4043
lfemur 12.7171 -40.7677 -38.1839
ltibia -3.75816
lfoot -50.8419 0.251925
ltoes -10.495
42
root -9.82159 16.0795 3.63584 -176.797 -85.5235 185.995
lowerback 5.29388 1.61636 -2.06291
upperback -10.6006 1.73296 1.14831
thorax -14.7578 0.990848 2.15723
lowerneck -18.2864 -1.34845 -0.875812
upperneck 30.6931 -2.02592 -0.919202
head 13.3931 -1.36762 -0.608608
rclavicle 9.79014e-015 -5.96354e-016
rhumerus -48.8258 18.7958 -83.6165
rradius 25.8344
rwrist -12.2941
rhand -24.5485 -25.5501
rfingers 7.12502
rthumb 1.94759 -55.521
lclavicle 9.79014e-015 -5.96354e-016
lhumerus -49.2594 9.02177 64.8377
lradius 23.988
lwrist -12.4896
lhand -30.979 36.1815
lfingers 7.12502
lthumb -4.26282 66.1185
rfemur -4.01098 27.0831 24.5554
rtibia -11.1458
rfoot -2.55667 -22.9523
rtoes -19.5871
lfemur 12.7716 -40.9569 -38.2495
ltibia -3.75724
lfoot -51.0615 1.2589
ltoes -11.6854
43
root -9.81297 16.0798 3.64185 -177.028 -85.5995 186.266
lowerback 5.4401 1.61958 -1.99011
upperback -10.579 1.74818 1.14674
thorax -14.823 0.99153 2.10927
lowerneck -18.4304 -1.32672 -0.816558
upperneck 30.7279 -2.01428 -0.902571
head 13.4382 -1.35118 -0.612314
rclavicle 3.97569e-016 3.37934e-015
rhumerus -49.1774 18.7513 -83.8994
rradius 25.9268
rwrist -12.5502
rhand -24.4936 -25.0574
rfingers 7.12502
rthumb 2.00067 -55.0278
lclavicle 3.97569e-016 3.37934e-015
lhumerus -49.2065 8.67287 66.1042
lradius 24.0489
lwrist -12.849
lhand -29.4668 37.2511
lfingers 7.12502
lthumb -2.80253 67.2124
rfemur -4.10488 26.9908 24.4837
rtibia -11.1174
rfoot -2.31103 -22.7899
rtoes -21.5448
lfemur 12.8517 -41.1679 -38.3335
ltibia -3.79393
lfoot -51.176 2.19152
ltoes -12.5347
44
root -9.8046 16.0812 3.64883 -176.851 -85.6654 186.163
lowerback 5.59423 1.61338 -1.93829
upperback -10.6014 1.74327 1.13352
thorax -14.9465 0.983779 2.06395
lowerneck -18.5916 -1.31013 -0.93207
upperneck 30.8533 -2.00523 -0.741311
head 13.53 -1.33835 -0.53127
rclavicle -2.37051e-014 0
rhumerus -49.4887 18.5587 -84.114
rradius 25.9888
rwrist -12.5693
rhand -24.2897 -24.8734
rfingers 7.12502
rthumb 2.19758 -54.8418
lclavicle -2.37051e-014 0
lhumerus -49.2666 7.9141 67.5015
lradius 24.128
lwrist -12.8172
lhand -28.1825 37.2624
lfingers 7.12502
lthumb -1.56216 67.2364
rfemur -4.25949 26.9025 24.346
rtibia -11.106
rfoot -2.08263 -22.662
rtoes -21.2919
lfemur 12.7855 -41.2549 -38.3153
ltibia -3.96224
lfoot -51.088 1.46469
ltoes -11.3338
45
root -9.79683 16.0835 3.65485 -176.062 -85.6985 185.437
lowerback 5.70473 1.61507 -1.95424
upperback -10.5813 1.7417 1.10455
thorax -14.9925 0.984037 2.03876
lowerneck -18.5531 -1.31935 -0.897876
upperneck 30.5644 -1.976 -0.844122
head 13.3971 -1.32927 -0.56676
rclavicle -1.1281e-014 -1.25234e-014
rhumerus -49.6068 18.3663 -84.3199
rradius 25.8958
rwrist -12.4784
rhand -24.2392 -24.9442
rfingers 7.12502
rthumb 2.24638 -54.9122
lclavicle -1.1281e-014 -1.25234e-014
lhumerus -49.2721 7.27417 68.8238
lradius 24.2411
lwrist -12.2705
lhand -27.8778 35.1632
lfingers 7.12502
lthumb -1.26785 65.1392
rfemur -4.38387 26.8649 24.2196
rtibia -11.0896
rfoot -2.12231 -22.6508
rtoes -19.4455
lfemur 12.6306 -41.1974 -38.2555
ltibia -4.03559
lfoot -50.8627 0.929285
ltoes -10.812
46
root -9.78557 16.0865 3.66029 -175.349 -85.7396 184.749
lowerback 5.84088 1.61413 -2.00681
upperback -10.5144 1.73736 1.09498
thorax -15.0002 0.989346 2.05546
lowerneck -18.5955 -1.28338 -0.673274
upperneck 30.3352 -1.92116 -1.02321
head 13.3041 -1.29738 -0.662228
rclavicle 1.70458e-014 1.07344e-014
rhumerus -49.6507 18.3652 -84.5834
rradius 25.8409
rwrist -12.6504
rhand -24.2096 -24.9942
rfingers 7.12502
rthumb 2.27495 -54.9618
lclavicle 1.70458e-014 1.07344e-014
lhumerus -49.1151 7.04783 69.9672
lradius 24.3515
lwrist -11.9636
lhand -27.4809 33.5642
lfingers 7.12502
lthumb -0.88451 63.5421
rfemur -4.48394 26.8246 24.1266
rtibia -11.0421
rfoot -2.12124 -22.6049
rtoes -18.8013
lfemur 12.5003 -41.2173 -38.2357
ltibia -3.9415
lfoot -50.839 1.46785
ltoes -11.7182
